<!DOCTYPE svg PUBLIC "-//W3C//DTD SVG 1.1//EN" "http://www.w3.org/Graphics/SVG/1.1/DTD/svg11.dtd">
<!-- Uploaded to: SVG Repo, www.svgrepo.com, Transformed by: SVG Repo Mixer Tools -->
<svg width="800px" height="800px" viewBox="0 0 48 48" xmlns="http://www.w3.org/2000/svg" fill="#000000">
<g id="SVGRepo_bgCarrier" stroke-width="0"/>
<g id="SVGRepo_tracerCarrier" stroke-linecap="round" stroke-linejoin="round"/>
<g id="SVGRepo_iconCarrier">
<defs>
<style>.a{fill:none;stroke:#68fcdc;stroke-linecap:round;stroke-linejoin:round;}</style>
</defs>
<path class="a" d="M14.2954,35.0237A9.8034,9.8034,0,0,1,4.5,25.212a10.1867,10.1867,0,0,1,4.5354-8.3972A9.8673,9.8673,0,0,1,18.8544,6.87a10.1647,10.1647,0,0,1,7.407,3.272,10.5236,10.5236,0,0,1,4.3356-.9629A9.6965,9.6965,0,0,1,40.33,18.9271a9.751,9.751,0,0,1-7.0325,16.936,11.07,11.07,0,0,1-9.14,5.2672,10.0151,10.0151,0,0,1-9.1406-6.0737,4.9536,4.9536,0,0,0-.7214-.0328Z"/>
<path class="a" d="M17.2749,20.7243l5.8705,1.8594"/>
<path class="a" d="M17.2749,24.4438l5.8705-1.8594"/>
<path class="a" d="M23.9185,26.9752a5.9,5.9,0,0,0,6.3029,0"/>
</g>
</svg>